<?xml version="1.0" encoding="UTF-8"?>
<svg id="Layer_2" data-name="Layer 2" xmlns="http://www.w3.org/2000/svg" viewBox="0 0 122.13 35.39">
  <defs>
    <style>
      .cls-1, .cls-2 {
        fill: #d2d5db;
      }

      .cls-2 {
        stroke: #5abe89;
        stroke-miterlimit: 10;
      }
    </style>
  </defs>
  <g id="Layer_1-2" data-name="Layer 1">
    <g>
      <polygon class="cls-2" points="24.63 .5 24.63 4.14 22.04 8.13 18.66 8.13 18.66 13.33 17.09 15.75 12.14 23.38 4.68 34.89 .5 34.89 .5 24.08 .96 23.38 5.9 15.75 10.85 8.13 15.8 .5 24.63 .5"/>
      <polygon class="cls-2" points="38.54 15.75 33.59 23.38 24.63 23.38 24.63 21.56 23.45 23.38 18.66 23.38 18.66 15.75 38.54 15.75"/>
      <polygon class="cls-2" points="48.43 .5 43.49 8.13 24.63 8.13 24.63 4.14 26.99 .5 48.43 .5"/>
    </g>
    <g>
      <path class="cls-1" d="m43.69,20.09c-.45,0-.83-.14-1.14-.43s-.47-.66-.47-1.1.16-.82.47-1.11.7-.45,1.14-.45.85.15,1.17.45.48.67.48,1.11c0,.42-.16.78-.48,1.08s-.71.45-1.17.45Zm1.35,14.52h-2.72v-12h2.72v12Z"/>
      <path class="cls-1" d="m51.32,34.61h-2.73v-17.77h2.73v17.77Z"/>
      <path class="cls-1" d="m65.02,29.35h-8.18c.03,1.11.37,1.96,1.03,2.57s1.55.9,2.69.9c1.28,0,2.46-.38,3.53-1.15v2.19c-1.09.69-2.54,1.03-4.34,1.03s-3.15-.54-4.15-1.63-1.51-2.62-1.51-4.6c0-1.87.55-3.39,1.66-4.56s2.48-1.76,4.12-1.76,2.91.53,3.81,1.58,1.35,2.52,1.35,4.39v1.04Zm-2.62-1.92c0-.98-.24-1.74-.69-2.28s-1.08-.81-1.88-.81-1.44.29-1.99.86-.88,1.32-1,2.24h5.55Z"/>
      <path class="cls-1" d="m67.92,34.61v-16.8h4.85c6.2,0,9.29,2.73,9.29,8.19,0,2.59-.86,4.68-2.58,6.25s-4.02,2.36-6.91,2.36h-4.65Zm2.78-14.44v12.08h2.23c1.96,0,3.49-.54,4.58-1.62s1.63-2.6,1.63-4.57c0-3.93-2.04-5.89-6.11-5.89h-2.33Z"/>
      <path class="cls-1" d="m91.79,25.2c-.33-.26-.8-.39-1.42-.39-.8,0-1.48.36-2.02,1.09s-.81,1.71-.81,2.96v5.74h-2.72v-12h2.72v2.47h.05c.27-.84.67-1.5,1.22-1.97s1.17-.71,1.85-.71c.49,0,.87.07,1.12.22v2.58Z"/>
      <path class="cls-1" d="m95.08,20.09c-.45,0-.83-.14-1.14-.43s-.47-.66-.47-1.1.16-.82.47-1.11.7-.45,1.14-.45.85.15,1.17.45.48.67.48,1.11c0,.42-.16.78-.48,1.08s-.71.45-1.17.45Zm1.35,14.52h-2.72v-12h2.72v12Z"/>
      <path class="cls-1" d="m110.32,22.61l-4.64,12h-2.94l-4.42-12h2.95l2.66,8.39c.2.62.33,1.16.38,1.62h.04c.07-.58.18-1.1.33-1.57l2.79-8.44h2.86Z"/>
      <path class="cls-1" d="m122.13,29.35h-8.18c.03,1.11.37,1.96,1.03,2.57s1.55.9,2.69.9c1.28,0,2.46-.38,3.53-1.15v2.19c-1.09.69-2.54,1.03-4.34,1.03s-3.15-.54-4.15-1.63-1.51-2.62-1.51-4.6c0-1.87.55-3.39,1.66-4.56s2.48-1.76,4.12-1.76,2.91.53,3.81,1.58,1.35,2.52,1.35,4.39v1.04Zm-2.62-1.92c0-.98-.24-1.74-.69-2.28s-1.08-.81-1.88-.81-1.44.29-1.99.86-.88,1.32-1,2.24h5.55Z"/>
    </g>
  </g>
</svg>