<?xml version="1.0" encoding="UTF-8"?>
<svg xmlns="http://www.w3.org/2000/svg" xmlns:xlink="http://www.w3.org/1999/xlink" viewBox="0 0 750.23 500.94">
  <defs>
    <style>
      .cls-1 {
        fill: url(#radial-gradient-7);
      }

      .cls-2, .cls-3, .cls-4 {
        fill: #fff;
      }

      .cls-5 {
        fill: url(#radial-gradient-8);
      }

      .cls-5, .cls-6 {
        opacity: .3;
      }

      .cls-7 {
        fill: url(#radial-gradient-5);
      }

      .cls-8 {
        fill: url(#radial-gradient-4);
      }

      .cls-9 {
        isolation: isolate;
      }

      .cls-3, .cls-4 {
        mix-blend-mode: overlay;
      }

      .cls-10 {
        fill: #99abc7;
        mix-blend-mode: screen;
      }

      .cls-10, .cls-11 {
        opacity: .1;
      }

      .cls-4 {
        opacity: .05;
      }

      .cls-12 {
        fill: url(#radial-gradient-6);
      }

      .cls-11 {
        fill: #d0e0fa;
      }

      .cls-13 {
        fill: url(#radial-gradient);
      }

      .cls-14 {
        fill: url(#radial-gradient-2);
      }

      .cls-15 {
        fill: url(#Degradado_sin_nombre_269);
      }

      .cls-16 {
        fill: #d1d5db;
      }

      .cls-17 {
        fill: url(#radial-gradient-3);
      }

      .cls-18 {
        fill: #215262;
      }

      .cls-19 {
        fill: #0e374a;
      }
    </style>
    <radialGradient id="radial-gradient" cx="365.72" cy="276" fx="365.72" fy="276" r="422.21" gradientUnits="userSpaceOnUse">
      <stop offset="0" stop-color="#99abc7"/>
      <stop offset=".04" stop-color="#90a3bd"/>
      <stop offset=".28" stop-color="#667a88"/>
      <stop offset=".5" stop-color="#445a5e"/>
      <stop offset=".7" stop-color="#2c4340"/>
      <stop offset=".88" stop-color="#1d352e"/>
      <stop offset="1" stop-color="#183028"/>
    </radialGradient>
    <radialGradient id="radial-gradient-2" cx="279.62" cy="293.86" fx="279.62" fy="293.86" r="218.45" gradientUnits="userSpaceOnUse">
      <stop offset="0" stop-color="#181c28"/>
      <stop offset=".2" stop-color="#1a1e2b"/>
      <stop offset=".36" stop-color="#222734"/>
      <stop offset=".5" stop-color="#303645"/>
      <stop offset=".64" stop-color="#434b5d"/>
      <stop offset=".77" stop-color="#5b677b"/>
      <stop offset=".89" stop-color="#7987a0"/>
      <stop offset="1" stop-color="#99abc7"/>
    </radialGradient>
    <radialGradient id="radial-gradient-3" cx="226.45" cy="220.8" fx="226.45" fy="220.8" r="251.34" gradientTransform="translate(-160.32 120.21) scale(1.52 .39)" gradientUnits="userSpaceOnUse">
      <stop offset="0" stop-color="#181c28"/>
      <stop offset=".12" stop-color="#1d212e"/>
      <stop offset=".3" stop-color="#2c3240"/>
      <stop offset=".5" stop-color="#444d5e"/>
      <stop offset=".72" stop-color="#667288"/>
      <stop offset=".96" stop-color="#90a2bd"/>
      <stop offset="1" stop-color="#99abc7"/>
    </radialGradient>
    <radialGradient id="radial-gradient-4" cx="241.31" cy="124.51" fx="241.31" fy="124.51" r="467.96" gradientTransform="translate(-160.32 59.5) scale(1.52 .52)" xlink:href="#radial-gradient-2"/>
    <radialGradient id="Degradado_sin_nombre_269" data-name="Degradado sin nombre 269" cx="508.43" cy="488.55" fx="508.43" fy="488.55" r="592.94" gradientTransform="translate(790.21 694.2) rotate(-180) scale(1.04 .55)" gradientUnits="userSpaceOnUse">
      <stop offset="0" stop-color="#c1d0e8"/>
      <stop offset=".08" stop-color="#b3c7df"/>
      <stop offset=".36" stop-color="#8aacc3"/>
      <stop offset=".62" stop-color="#6c99ae"/>
      <stop offset=".84" stop-color="#5a8da2"/>
      <stop offset="1" stop-color="#54899e"/>
    </radialGradient>
    <radialGradient id="radial-gradient-5" cx="240.13" cy="264.19" fx="240.13" fy="264.19" r="249.65" gradientTransform="translate(9.28 502.63) scale(1.04 -.23)" xlink:href="#radial-gradient-2"/>
    <radialGradient id="radial-gradient-6" cx="237.53" cy="314.96" fx="237.53" fy="314.96" r="163.88" gradientTransform="translate(9.28 537.04) scale(1.04 -.38)" xlink:href="#radial-gradient-2"/>
    <radialGradient id="radial-gradient-7" cx="242.39" cy="212.52" fx="242.39" fy="212.52" r="528.12" gradientTransform="translate(9.28 532.78) scale(1.04 -.31)" xlink:href="#radial-gradient-2"/>
    <radialGradient id="radial-gradient-8" cx="509.91" cy="475.77" fx="509.91" fy="475.77" r="127.26" gradientTransform="translate(134.62 457.81) scale(.74 .04)" gradientUnits="userSpaceOnUse">
      <stop offset="0" stop-color="#000100"/>
      <stop offset="1" stop-color="#000100" stop-opacity="0"/>
    </radialGradient>
  </defs>
  <g class="cls-9">
    <g id="Layer_2" data-name="Layer 2">
      <g id="objects">
        <g>
          <rect class="cls-13" x=".23" width="750" height="500"/>
          <polygon class="cls-3" points="132.27 197.24 132.71 198.14 133.71 198.28 132.99 198.99 133.16 199.98 132.27 199.51 131.37 199.98 131.54 198.99 130.82 198.28 131.82 198.14 132.27 197.24"/>
          <polygon class="cls-3" points="75.46 182.26 75.91 183.16 76.9 183.31 76.18 184.01 76.35 185 75.46 184.53 74.57 185 74.74 184.01 74.02 183.31 75.02 183.16 75.46 182.26"/>
          <polygon class="cls-3" points="175.48 82.21 175.93 83.11 176.93 83.26 176.21 83.96 176.38 84.95 175.48 84.48 174.59 84.95 174.76 83.96 174.04 83.26 175.04 83.11 175.48 82.21"/>
          <polygon class="cls-3" points="267.32 160.61 267.77 161.51 268.77 161.66 268.04 162.36 268.21 163.35 267.32 162.88 266.43 163.35 266.6 162.36 265.88 161.66 266.88 161.51 267.32 160.61"/>
          <polygon class="cls-3" points="161.36 87.37 161.8 88.27 162.8 88.41 162.08 89.12 162.25 90.11 161.36 89.64 160.46 90.11 160.64 89.12 159.91 88.41 160.91 88.27 161.36 87.37"/>
          <polygon class="cls-3" points="25.46 86 25.9 86.9 26.9 87.04 26.18 87.75 26.35 88.74 25.46 88.27 24.56 88.74 24.73 87.75 24.01 87.04 25.01 86.9 25.46 86"/>
          <polygon class="cls-3" points="115.12 155.34 115.57 156.24 116.56 156.38 115.84 157.09 116.01 158.08 115.12 157.61 114.23 158.08 114.4 157.09 113.68 156.38 114.68 156.24 115.12 155.34"/>
          <polygon class="cls-3" points="66.62 131.93 67.07 132.83 68.06 132.97 67.34 133.68 67.51 134.67 66.62 134.2 65.73 134.67 65.9 133.68 65.18 132.97 66.18 132.83 66.62 131.93"/>
          <polygon class="cls-3" points="85.48 118.24 85.92 119.14 86.92 119.29 86.2 119.99 86.37 120.98 85.48 120.51 84.59 120.98 84.76 119.99 84.04 119.29 85.03 119.14 85.48 118.24"/>
          <polygon class="cls-3" points="652 97.28 652.44 98.18 653.44 98.33 652.72 99.03 652.89 100.02 652 99.56 651.1 100.02 651.27 99.03 650.55 98.33 651.55 98.18 652 97.28"/>
          <polygon class="cls-3" points="595.19 82.3 595.64 83.2 596.64 83.35 595.91 84.05 596.08 85.04 595.19 84.58 594.3 85.04 594.47 84.05 593.75 83.35 594.75 83.2 595.19 82.3"/>
          <polygon class="cls-3" points="634.85 55.38 635.3 56.28 636.29 56.43 635.57 57.13 635.74 58.12 634.85 57.65 633.96 58.12 634.13 57.13 633.41 56.43 634.41 56.28 634.85 55.38"/>
          <polygon class="cls-3" points="586.35 31.97 586.8 32.87 587.8 33.02 587.07 33.72 587.24 34.71 586.35 34.24 585.46 34.71 585.63 33.72 584.91 33.02 585.91 32.87 586.35 31.97"/>
          <polygon class="cls-3" points="605.21 18.28 605.66 19.19 606.65 19.33 605.93 20.03 606.1 21.03 605.21 20.56 604.32 21.03 604.49 20.03 603.77 19.33 604.76 19.19 605.21 18.28"/>
          <polygon class="cls-3" points="343.22 125.83 343.67 126.74 344.67 126.88 343.95 127.58 344.12 128.58 343.22 128.11 342.33 128.58 342.5 127.58 341.78 126.88 342.78 126.74 343.22 125.83"/>
          <polygon class="cls-3" points="475.72 31.97 476.16 32.87 477.16 33.02 476.44 33.72 476.61 34.71 475.72 34.24 474.83 34.71 475 33.72 474.28 33.02 475.27 32.87 475.72 31.97"/>
          <polygon class="cls-3" points="546.82 55.38 547.27 56.28 548.27 56.43 547.54 57.13 547.71 58.12 546.82 57.65 545.93 58.12 546.1 57.13 545.38 56.43 546.38 56.28 546.82 55.38"/>
          <polygon class="cls-3" points="733.03 73.03 733.47 73.94 734.47 74.08 733.75 74.79 733.92 75.78 733.03 75.31 732.14 75.78 732.31 74.79 731.59 74.08 732.58 73.94 733.03 73.03"/>
          <polygon class="cls-3" points="724.19 22.7 724.63 23.61 725.63 23.75 724.91 24.45 725.08 25.45 724.19 24.98 723.3 25.45 723.47 24.45 722.75 23.75 723.74 23.61 724.19 22.7"/>
          <polygon class="cls-3" points="684.66 46.11 685.1 47.02 686.1 47.16 685.38 47.86 685.55 48.86 684.66 48.39 683.77 48.86 683.94 47.86 683.22 47.16 684.21 47.02 684.66 46.11"/>
          <polygon class="cls-3" points="294.72 102.42 295.17 103.33 296.17 103.47 295.45 104.18 295.62 105.17 294.72 104.7 293.83 105.17 294 104.18 293.28 103.47 294.28 103.33 294.72 102.42"/>
          <polygon class="cls-3" points="313.58 88.74 314.03 89.64 315.02 89.79 314.3 90.49 314.47 91.48 313.58 91.01 312.69 91.48 312.86 90.49 312.14 89.79 313.14 89.64 313.58 88.74"/>
          <polygon class="cls-3" points="192.84 138.92 193.28 139.82 194.28 139.97 193.56 140.67 193.73 141.66 192.84 141.2 191.95 141.66 192.12 140.67 191.4 139.97 192.39 139.82 192.84 138.92"/>
          <polygon class="cls-3" points="515.37 82.21 515.82 83.11 516.81 83.26 516.09 83.96 516.26 84.95 515.37 84.48 514.48 84.95 514.65 83.96 513.93 83.26 514.93 83.11 515.37 82.21"/>
          <polygon class="cls-3" points="501.24 87.37 501.69 88.27 502.69 88.41 501.97 89.12 502.14 90.11 501.24 89.64 500.35 90.11 500.52 89.12 499.8 88.41 500.8 88.27 501.24 87.37"/>
          <polygon class="cls-3" points="406.51 131.93 406.96 132.83 407.95 132.97 407.23 133.68 407.4 134.67 406.51 134.2 405.62 134.67 405.79 133.68 405.07 132.97 406.06 132.83 406.51 131.93"/>
          <polygon class="cls-3" points="425.37 118.24 425.81 119.14 426.81 119.29 426.09 119.99 426.26 120.98 425.37 120.51 424.48 120.98 424.65 119.99 423.92 119.29 424.92 119.14 425.37 118.24"/>
          <polygon class="cls-3" points="620.55 106.43 621 107.34 622 107.48 621.28 108.18 621.45 109.18 620.55 108.71 619.66 109.18 619.83 108.18 619.11 107.48 620.11 107.34 620.55 106.43"/>
          <polygon class="cls-3" points="593.75 140.29 594.2 141.2 595.19 141.34 594.47 142.04 594.64 143.04 593.75 142.57 592.86 143.04 593.03 142.04 592.31 141.34 593.31 141.2 593.75 140.29"/>
          <g>
            <circle class="cls-10" cx="200.16" cy="258.29" r="82.11" transform="translate(-96.65 394.96) rotate(-76.95)"/>
            <circle class="cls-10" cx="200.16" cy="258.29" r="52.16" transform="translate(-96.5 395.28) rotate(-77.01)"/>
            <circle class="cls-10" cx="200.16" cy="258.29" r="33.95"/>
            <circle class="cls-16" cx="200.16" cy="258.29" r="26.36"/>
          </g>
          <g>
            <polygon class="cls-18" points="404.5 271.95 388.33 271.95 380.96 280.06 404.5 271.95"/>
            <polygon class="cls-14" points="558.09 201.7 542.61 191.27 525.58 181.98 501.3 180.93 482.69 185.52 471.92 187.28 461.95 185 450.35 183.41 432.27 184.89 401.52 174.44 367.76 162 353.84 166.93 337.78 169.18 322.76 170.12 308.62 177.83 283.1 194.85 271.43 225 254.14 229.23 241.27 250.17 200.79 278.69 182.98 263.98 169 260 141.2 223 111.92 209.99 93.18 203.35 73.84 200.52 54.09 186.16 46.32 180.73 37.64 177.35 23.71 182.94 6.34 193.63 2.58 197.22 1.05 198.72 .23 198.89 .23 425.71 559 425.71 559 202.07 558.09 201.7"/>
            <polygon class="cls-17" points="559.39 222.84 503.29 212.34 463.98 204.93 450.06 209.21 446.55 210.77 438.99 210.59 414.36 206.66 392 206.92 351.92 197.95 319.68 208.48 294.08 209.45 291.97 229.17 267.04 272 207.05 310 141.36 251.73 123.11 228.68 101.35 235.93 65.85 219.51 44 210.82 21.34 209.2 .23 207.13 .23 377.69 572.17 377.69 572.17 208.25 559.39 222.84"/>
            <polygon class="cls-8" points="745.06 87.83 674.05 121.25 627.97 143.88 594.75 157.42 572.06 152.56 562.94 150.46 553.76 154.8 546.9 165.46 539.69 188.9 515.62 205.38 498.13 210.93 475.64 212.86 436.43 235.23 432.1 266.32 393.32 265.5 372.5 272.74 350.69 261.67 303.16 272.78 216.37 331.07 177.37 318.5 132.27 271.58 93.28 254.27 62.78 263.55 44.06 254.79 7.04 255.08 .23 250.36 .23 383.61 750.23 383.61 750.23 84.95 745.06 87.83"/>
            <polygon class="cls-4" points="750.23 94.28 604.19 159.18 661.87 159.18 661.87 186.67 726.28 131.67 742.33 138.95 750.23 113.43 750.23 94.28"/>
            <polygon class="cls-4" points="559.25 161.98 572.17 172.52 541.24 191.07 559.25 161.98"/>
            <polygon class="cls-4" points="481.59 220.68 445.55 242.25 445.55 253.81 458.65 245.41 463.61 264.05 481.59 220.68"/>
            <polygon class="cls-4" points="336.06 271.95 307.14 280.06 235.19 328.83 321.46 292.82 310.63 287.75 336.06 271.95"/>
            <polygon class="cls-4" points="706.24 186.67 684.65 227.09 624.57 253.81 708.84 234.67 706.24 186.67"/>
            <polygon class="cls-4" points="40.37 263.34 6.84 254.93 .23 251.77 .23 257.95 4.89 258.59 21.5 271.95 59.55 276.01 40.37 263.34"/>
            <polygon class="cls-4" points="93.28 254.27 132.27 271.58 72.19 268.58 93.28 254.27"/>
          </g>
          <rect class="cls-15" y="352.9" width="750.23" height="147.1"/>
          <g class="cls-6">
            <g>
              <ellipse class="cls-11" cx="246.77" cy="424.63" rx="70.89" ry="68.16"/>
              <ellipse class="cls-11" cx="246.77" cy="424.63" rx="58.76" ry="56.49"/>
              <ellipse class="cls-11" cx="246.77" cy="424.63" rx="43.53" ry="41.85"/>
              <ellipse class="cls-2" cx="246.77" cy="424.63" rx="33.79" ry="32.49"/>
            </g>
            <path class="cls-7" d="m.23,353.22v64.83l.94-.25,21.14-1.63,19.03-1.22,23.62,6.06,21.5.53,16.18,2.93s7.45,2.42,11.62,3.32l1.06.39c.88.56,2.75,1.65,2.75,1.65l6.36,2.43,5.2.73,1.05.7,2.57,1.67,11.87,4.97,9.52,2.6,5.93-1.57,5.31-2.52,13.49-6.68,13.22-1.32,12.8-3.08,20.47-10.37,7.74-1.48,9.34,1.63,12.17-6.84,14.66,8.61,8.79,9.74,21.13,2.02,22.65,3.73,17.43,7.92,9.66,3.59,10.26.44,10.97,1.04,9.51,2.29,23.07-5.79,21.01-4.86,12.35.69,7.93-.74,6.81-1.06,7.36.82,12.72,2.13,16.59-.49,11.63-4.32,10.58-4.85.62-.18v-78.21H.23Z"/>
            <polygon class="cls-12" points=".23 353.22 .23 429.29 22.4 433.22 34.48 443.11 42.07 448.67 60.48 446.64 69.52 441.52 79.42 435.89 105.79 425.8 134.51 423.92 149.98 423.18 164.92 419.21 189.17 411.72 204.04 415.03 216.5 404.51 259.91 388.54 303.53 403.48 319.4 414.81 320.84 423.81 338.33 424.25 360.36 429.06 387.74 424.96 403.02 425.08 419.84 423.29 425.01 423.21 427.41 423.91 436.92 425.87 463.78 422.49 502.11 417.69 510.83 424.35 510.83 353.22 .23 353.22"/>
            <path class="cls-1" d="m.23,353.22v103.8l22.36-11.71,17.49-7.52,9.69.72,22.22-3.31,17.59-13.36,9.65-6.89,25.51-12.97,25.29.15,12.79-4.39,20.84,4.65,26.64-8.68,30.82-23.53,26.64-6.3,59.3,29.23,32.47,5.57,14.9-5.55,14.23,3.63,26.49-.41,2.95,15.59,26.79,11.22,15.37.97,11.95,2.78,16.45,8.27,4.93,11.75,4.69,5.35,6.27,2.18,6.23-1.05,15.5-2.44,22.7,6.79,31.48,11.35,48.52,16.76,13.26,5.42,15.12-4.03,26.88-1.36,17.57,5,18.48,4.16s19.5,4.39,29.98,5.89v-147.72H.23Z"/>
          </g>
          <g>
            <g>
              <polygon class="cls-19" points="440.35 352.88 433.09 332.89 434.12 332.89 428.37 319.87 428.11 319.15 428.63 319.15 422.94 302.31 417.25 319.15 417.77 319.15 417.51 319.87 411.75 332.89 412.78 332.89 405.52 352.88 440.35 352.88"/>
              <polygon class="cls-19" points="477.16 352.88 472.09 338.9 472.81 338.9 468.78 329.8 468.6 329.3 468.97 329.3 464.99 317.52 461.01 329.3 461.37 329.3 461.19 329.8 457.17 338.9 457.89 338.9 452.81 352.88 477.16 352.88"/>
              <polygon class="cls-19" points="515.41 352.88 508.15 332.89 509.18 332.89 503.42 319.87 503.17 319.15 503.69 319.15 497.99 302.31 492.3 319.15 492.82 319.15 492.57 319.87 486.81 332.89 487.84 332.89 480.58 352.88 515.41 352.88"/>
              <polygon class="cls-19" points="552.22 352.88 547.15 338.9 547.87 338.9 543.84 329.8 543.66 329.3 544.02 329.3 540.05 317.52 536.07 329.3 536.43 329.3 536.25 329.8 532.23 338.9 532.94 338.9 527.87 352.88 552.22 352.88"/>
              <polygon class="cls-19" points="572.21 352.88 568.95 343.91 569.41 343.91 566.83 338.07 566.71 337.75 566.95 337.75 564.4 330.19 561.84 337.75 562.08 337.75 561.96 338.07 559.38 343.91 559.84 343.91 556.58 352.88 572.21 352.88"/>
              <polygon class="cls-19" points="370.21 352.88 375.29 338.9 374.57 338.9 378.59 329.8 378.77 329.3 378.41 329.3 382.39 317.52 386.37 329.3 386 329.3 386.18 329.8 390.21 338.9 389.49 338.9 394.56 352.88 370.21 352.88"/>
              <polygon class="cls-19" points="350.23 352.88 353.48 343.91 353.02 343.91 355.6 338.07 355.72 337.75 355.49 337.75 358.04 330.19 360.59 337.75 360.36 337.75 360.48 338.07 363.06 343.91 362.6 343.91 365.85 352.88 350.23 352.88"/>
              <polygon class="cls-19" points="317.42 352.88 320.67 343.91 320.21 343.91 322.79 338.07 322.91 337.75 322.68 337.75 325.23 330.19 327.78 337.75 327.55 337.75 327.66 338.07 330.25 343.91 329.79 343.91 333.04 352.88 317.42 352.88"/>
              <polygon class="cls-19" points="44.64 352.88 51.9 332.89 50.87 332.89 56.63 319.87 56.89 319.15 56.37 319.15 62.06 302.31 67.75 319.15 67.23 319.15 67.49 319.87 73.24 332.89 72.21 332.89 79.47 352.88 44.64 352.88"/>
              <polygon class="cls-19" points="7.83 352.88 12.9 338.9 12.19 338.9 16.21 329.8 16.39 329.3 16.03 329.3 20 317.52 23.98 329.3 23.62 329.3 23.8 329.8 27.82 338.9 27.11 338.9 32.18 352.88 7.83 352.88"/>
              <polygon class="cls-19" points="114.78 352.88 109.71 338.9 110.42 338.9 106.4 329.8 106.22 329.3 106.58 329.3 102.6 317.52 98.62 329.3 98.99 329.3 98.81 329.8 94.78 338.9 95.5 338.9 90.43 352.88 114.78 352.88"/>
              <polygon class="cls-19" points="134.77 352.88 131.51 343.91 131.97 343.91 129.39 338.07 129.27 337.75 129.51 337.75 126.95 330.19 124.4 337.75 124.63 337.75 124.52 338.07 121.93 343.91 122.4 343.91 119.14 352.88 134.77 352.88"/>
              <polygon class="cls-19" points="189.67 352.88 186.41 343.91 186.87 343.91 184.29 338.07 184.17 337.75 184.41 337.75 181.85 330.19 179.3 337.75 179.53 337.75 179.42 338.07 176.84 343.91 177.3 343.91 174.04 352.88 189.67 352.88"/>
              <polygon class="cls-19" points="298.32 352.88 296.19 347.03 296.49 347.03 294.81 343.21 294.73 343 294.88 343 293.21 338.07 291.55 343 291.7 343 291.62 343.21 289.94 347.03 290.24 347.03 288.11 352.88 298.32 352.88"/>
              <polygon class="cls-19" points="636.59 352.88 629.33 332.89 630.36 332.89 624.6 319.87 624.35 319.15 624.86 319.15 619.17 302.31 613.48 319.15 614 319.15 613.74 319.87 607.99 332.89 609.02 332.89 601.76 352.88 636.59 352.88"/>
              <polygon class="cls-19" points="673.4 352.88 668.33 338.9 669.05 338.9 665.02 329.8 664.84 329.3 665.2 329.3 661.23 317.52 657.25 329.3 657.61 329.3 657.43 329.8 653.41 338.9 654.12 338.9 649.05 352.88 673.4 352.88"/>
              <polygon class="cls-19" points="711.65 352.88 704.39 332.89 705.42 332.89 699.66 319.87 699.4 319.15 699.92 319.15 694.23 302.31 688.54 319.15 689.06 319.15 688.8 319.87 683.05 332.89 684.08 332.89 676.82 352.88 711.65 352.88"/>
              <polygon class="cls-19" points="748.46 352.88 743.39 338.9 744.1 338.9 740.08 329.8 739.9 329.3 740.26 329.3 736.29 317.52 732.31 329.3 732.67 329.3 732.49 329.8 728.47 338.9 729.18 338.9 724.11 352.88 748.46 352.88"/>
            </g>
            <g class="cls-6">
              <polygon class="cls-18" points="440.35 352.88 433.09 361.81 434.12 361.81 428.37 367.63 428.11 367.95 428.63 367.95 422.94 375.47 417.25 367.95 417.77 367.95 417.51 367.63 411.75 361.81 412.78 361.81 405.52 352.88 440.35 352.88"/>
              <polygon class="cls-18" points="477.16 352.88 472.09 359.13 472.81 359.13 468.78 363.19 468.6 363.42 468.97 363.42 464.99 368.68 461.01 363.42 461.37 363.42 461.19 363.19 457.17 359.13 457.89 359.13 452.81 352.88 477.16 352.88"/>
              <polygon class="cls-18" points="515.41 352.88 508.15 361.81 509.18 361.81 503.42 367.63 503.17 367.95 503.69 367.95 497.99 375.47 492.3 367.95 492.82 367.95 492.57 367.63 486.81 361.81 487.84 361.81 480.58 352.88 515.41 352.88"/>
              <polygon class="cls-18" points="552.22 352.88 547.15 359.13 547.87 359.13 543.84 363.19 543.66 363.42 544.02 363.42 540.05 368.68 536.07 363.42 536.43 363.42 536.25 363.19 532.23 359.13 532.94 359.13 527.87 352.88 552.22 352.88"/>
              <polygon class="cls-18" points="572.21 352.88 568.95 356.89 569.41 356.89 566.83 359.5 566.71 359.64 566.95 359.64 564.4 363.02 561.84 359.64 562.08 359.64 561.96 359.5 559.38 356.89 559.84 356.89 556.58 352.88 572.21 352.88"/>
              <polygon class="cls-18" points="370.21 352.88 375.29 359.13 374.57 359.13 378.59 363.19 378.77 363.42 378.41 363.42 382.39 368.68 386.37 363.42 386 363.42 386.18 363.19 390.21 359.13 389.49 359.13 394.56 352.88 370.21 352.88"/>
              <polygon class="cls-18" points="350.23 352.88 353.48 356.89 353.02 356.89 355.6 359.5 355.72 359.64 355.49 359.64 358.04 363.02 360.59 359.64 360.36 359.64 360.48 359.5 363.06 356.89 362.6 356.89 365.85 352.88 350.23 352.88"/>
              <polygon class="cls-18" points="317.42 352.88 320.67 356.89 320.21 356.89 322.79 359.5 322.91 359.64 322.68 359.64 325.23 363.02 327.78 359.64 327.55 359.64 327.66 359.5 330.25 356.89 329.79 356.89 333.04 352.88 317.42 352.88"/>
              <polygon class="cls-18" points="44.64 352.88 51.9 361.81 50.87 361.81 56.63 367.63 56.89 367.95 56.37 367.95 62.06 375.47 67.75 367.95 67.23 367.95 67.49 367.63 73.24 361.81 72.21 361.81 79.47 352.88 44.64 352.88"/>
              <polygon class="cls-18" points="7.83 352.88 12.9 359.13 12.19 359.13 16.21 363.19 16.39 363.42 16.03 363.42 20 368.68 23.98 363.42 23.62 363.42 23.8 363.19 27.82 359.13 27.11 359.13 32.18 352.88 7.83 352.88"/>
              <polygon class="cls-18" points="114.78 352.88 109.71 359.13 110.42 359.13 106.4 363.19 106.22 363.42 106.58 363.42 102.6 368.68 98.62 363.42 98.99 363.42 98.81 363.19 94.78 359.13 95.5 359.13 90.43 352.88 114.78 352.88"/>
              <polygon class="cls-18" points="134.77 352.88 131.51 356.89 131.97 356.89 129.39 359.5 129.27 359.64 129.51 359.64 126.95 363.02 124.4 359.64 124.63 359.64 124.52 359.5 121.93 356.89 122.4 356.89 119.14 352.88 134.77 352.88"/>
              <polygon class="cls-18" points="189.67 352.88 186.41 356.89 186.87 356.89 184.29 359.5 184.17 359.64 184.41 359.64 181.85 363.02 179.3 359.64 179.53 359.64 179.42 359.5 176.84 356.89 177.3 356.89 174.04 352.88 189.67 352.88"/>
              <polygon class="cls-18" points="298.32 352.88 296.19 355.5 296.49 355.5 294.81 357.2 294.73 357.3 294.88 357.3 293.21 359.5 291.55 357.3 291.7 357.3 291.62 357.2 289.94 355.5 290.24 355.5 288.11 352.88 298.32 352.88"/>
              <polygon class="cls-18" points="636.59 352.88 629.33 361.81 630.36 361.81 624.6 367.63 624.35 367.95 624.86 367.95 619.17 375.47 613.48 367.95 614 367.95 613.74 367.63 607.99 361.81 609.02 361.81 601.76 352.88 636.59 352.88"/>
              <polygon class="cls-18" points="673.4 352.88 668.33 359.13 669.05 359.13 665.02 363.19 664.84 363.42 665.2 363.42 661.23 368.68 657.25 363.42 657.61 363.42 657.43 363.19 653.41 359.13 654.12 359.13 649.05 352.88 673.4 352.88"/>
              <polygon class="cls-18" points="711.65 352.88 704.39 361.81 705.42 361.81 699.66 367.63 699.4 367.95 699.92 367.95 694.23 375.47 688.54 367.95 689.06 367.95 688.8 367.63 683.05 361.81 684.08 361.81 676.82 352.88 711.65 352.88"/>
              <polygon class="cls-18" points="748.46 352.88 743.39 359.13 744.1 359.13 740.08 363.19 739.9 363.42 740.26 363.42 736.29 368.68 732.31 363.42 732.67 363.42 732.49 363.19 728.47 359.13 729.18 359.13 724.11 352.88 748.46 352.88"/>
            </g>
          </g>
          <path class="cls-5" d="m605.21,475.84c0,2.54-42.48,4.6-94.89,4.6s-94.89-2.06-94.89-4.6,42.48-4.6,94.89-4.6,94.89,2.06,94.89,4.6Z"/>
        </g>
      </g>
    </g>
  </g>
</svg>